/* XPM */
static const char *bitcoin16_xpm[] = {
/* columns rows colors chars-per-pixel */
"16 16 168 2",
"   c Black",
"S  c #4A0002",
"L. c #5B6D5B",
"L  c #BB3912",
"+. c #6E0000",
"B  c #791B0E",
"3. c #110000",
"+  c #531B0A",
"e  c #4D0401",
":  c #701D05",
"U  c #6C0000",
"@. c #6C0001",
"_  c #9F0F03",
"e. c #0F0000",
"K. c #C09557",
"I  c #CE5922",
"#. c #590001",
":. c #F78F41",
"i. c #460000",
"7. c #721104",
"Z. c #200000",
"C. c #0D0000",
"H. c #F97D2B",
",. c #570000",
"$. c #440001",
"*  c #120101",
"h. c #2F0601",
"g. c #1E0000",
"v  c #1E0001",
";  c #561304",
"<  c #0B0000",
"Q  c #0B0001",
"K  c #EF6C25",
"f  c #B86F36",
"r  c #640901",
"1  c #2F0000",
"c  c #2F0001",
"s. c #EA6521",
"&. c #1C0000",
"%. c #1C0001",
"4  c #912A08",
"h  c #5B1108",
"a  c #090000",
"0  c #833114",
"q. c #400000",
"1. c #400001",
"t  c #B44310",
"E  c #2D0000",
"z. c #7F3D1D",
"6  c #1A0001",
"&  c #070000",
"Y. c #2B0300",
"!  c #070001",
"<. c #510001",
"n. c #FF7C2D",
"@  c #0C0101",
"3  c #2B0000",
"B. c #D78E4C",
"P. c #180001",
"V. c #9A7443",
"#  c #050000",
"x  c #3C0000",
"S. c #350202",
"A. c #290000",
"6. c #681107",
"Z  c #99260B",
"9  c #1B0401",
"=  c #160001",
"b. c #A52506",
"o  c #030000",
"q  c #47150A",
"C  c #F67827",
"d. c #9F3A18",
"2  c #270001",
"G  c #140001",
"M  c #71290D",
"%  c #010000",
"8. c #F47B2F",
"9. c #DE7134",
"n  c #120000",
"a. c #F1681F",
"O. c #B84523",
"u. c #6C1C0A",
"i  c #230001",
"X. c #F38E42",
"'  c #6D0001",
"R. c #7E3217",
"U. c #1C0201",
"b  c #100000",
"O  c #260A05",
"G. c #C16028",
",  c #100001",
"]  c #5A0001",
"J. c #FB9642",
"~  c #210000",
"w. c #210001",
"*. c #832D10",
"/  c #F77329",
"[  c #450001",
">  c #1F0302",
" . c #7C2C11",
"y  c #590D03",
"f. c #4F0502",
"H  c #1F0000",
"4. c #812D0F",
"7  c #0C0000",
"|  c #0C0001",
"=. c #F57025",
"c. c #430000",
"E. c #893E23",
"T. c #1D0301",
"{  c #300000",
"J  c #75280F",
"-. c #9E2F10",
"}  c #1D0001",
"o. c #FFA750",
"2. c #0A0000",
"T  c #540001",
")  c #FFA755",
"R  c #410001",
"5  c #440A02",
"w  c #2E0000",
"p. c #992208",
"P  c #F98739",
"W  c #1B0001",
"Y  c #650001",
"t. c #C36B31",
"k. c #1E0A04",
"s  c #080000",
"j  c #520000",
"^  c #78260D",
"u  c #2C0000",
"m. c #FF9842",
"M. c #DF5417",
".  c #170909",
"$  c #060000",
"v. c #790700",
"d  c #230501",
"N  c #FF923B",
"k  c #C13609",
"y. c #FF923D",
".. c #FC8535",
"F. c #C63A11",
"l  c #C55319",
"0. c #691107",
"z  c #4E0301",
"F  c #170001",
"x. c #561107",
"r. c #210805",
"X  c #040000",
"A  c #4E0000",
"D. c #750D02",
"g  c #EC8F41",
";. c #E6752F",
"j. c #3F1D0E",
"`  c #720000",
"-  c #150000",
"p  c #150001",
">. c #891A0B",
"8  c #020000",
"5. c #FF8330",
"N. c #BE4C1A",
"D  c #390001",
"V  c #8E1804",
"m  c #130000",
"I. c #130001",
"l. c #512D19",
"(  c #FFB25C",
/* pixels */
"            .                   ",
"        X o O + @ # $ %         ",
"      & * = - ; : > , < o       ",
"    & - 1 2 2 3 4 5 6 = 7 8     ",
"    9 0 q w e r t y u i p a     ",
"  s d f g h j k l z x c v b o   ",
"X n m M N B V C Z A S D 2 F &   ",
"# G H J K L P I U Y T R E W Q   ",
"! F ~ ^ / ( ) _ ` ' ] [ { } | % ",
"# F H  ...X.o.O.+.@.#.$.{ %.| % ",
"X G &.*.=.-.;.:.>.,.<.1.u 6 2.  ",
"  3.m 4.5.6.7.8.9.0.q.w w.e.    ",
"  & r.t.y.u.i.p.a.s.d.f.g.h.j.  ",
"    k.l.z.x.c.v.b.n.m.M.N.B.V.  ",
"      % C.Z.A.S.D.F.G.H.J.K.L.  ",
"        3.G P.I.U.Y.T.R.E.      "
};
