/* XPM */
static const char *bitcoin32_xpm[] = {
/* columns rows colors chars-per-pixel */
"32 32 486 2",
"   c Black",
"1  c #090000",
"$  c #000001",
"No c #090001",
"Q  c #120000",
"2+ c #120001",
"!  c #180201",
"W  c #1B0001",
"H  c #240000",
"7+ c #000306",
"C  c #1B0002",
"a. c #360000",
"M  c #5A1202",
"K  c #2D0001",
":  c #1E0706",
"]  c #360001",
"-O c #3C0202",
"go c #3F0001",
"l. c #480000",
"So c #510000",
"jo c #6C1504",
"qO c #870F00",
"r. c #901200",
"D. c #5A0000",
"I. c #510001",
"WX c #541006",
"TO c #991802",
"Qo c #510002",
"$+ c #841A06",
"7O c #661006",
"uX c #6C0001",
"Bo c #7E210B",
"'X c #750001",
"`X c #7E0001",
"). c #A21B06",
"tO c #E4460E",
"Ko c #842612",
"po c #CF4B17",
"&O c #E76E25",
"K. c #FC8A2E",
"#X c #F36C25",
".+ c #ED7C2D",
"LX c #E7501F",
".o c #FF762A",
"5+ c #873F26",
"`. c #FF8E33",
"uo c #F6702B",
"To c #F98333",
"hX c #E48536",
"Ro c #FF7F33",
"~. c #FF8836",
"2o c #FF8E3A",
"VO c #FF7C36",
"g. c #B77C40",
"|o c #FF9140",
"=X c #FFA047",
"5o c #E18745",
"WO c #F6A04E",
"/X c #FFA04F",
"_O c #A28455",
"+o c #FFAF5B",
"~X c #FFBB62",
"O  c #050000",
"o. c #0E0000",
"Uo c #170000",
"u  c #170001",
"EX c #200000",
"2. c #290000",
"E  c #200001",
"z  c #1D0202",
"@  c #170605",
"L  c #320000",
"(  c #2C0101",
"vO c #440000",
",O c #531104",
"}X c #3B0001",
"D  c #350403",
"Y  c #6B1302",
"SX c #6E1102",
"Y. c #440001",
"NX c #4D0001",
"bO c #6E0B02",
"Do c #620100",
",X c #5F0000",
"8o c #560001",
"#  c #32120B",
"@. c #501308",
"e. c #AD2003",
"(. c #590102",
"_. c #D13E0B",
"7o c #680002",
"!o c #710F07",
"$o c #7A0001",
">  c #77260E",
"AO c #E04F12",
"vX c #A71E0A",
"!X c #F55313",
"Fo c #DA621D",
"wo c #F8601C",
"DX c #EF7E2D",
"S. c #CE6D2E",
"|O c #D17431",
"Co c #FE8032",
"GX c #FE9B41",
"oo c #F28B41",
"Jo c #EC9E54",
"o  c #010000",
";  c #0A0000",
"3  c #010001",
"7  c #130000",
"-  c #0A0001",
"#+ c #1C0000",
"k  c #130001",
"1O c #0D0404",
"n  c #250000",
"p  c #1C0001",
"sX c #2E0000",
"3. c #1C0002",
")  c #2E0001",
"%. c #370000",
"V  c #340503",
"q. c #400000",
"Po c #400001",
"C. c #430D05",
"oO c #490001",
"{. c #520001",
">. c #942807",
"u. c #8B1C04",
"gX c #610B03",
"do c #5B0000",
"@O c #820A00",
"sO c #58170A",
";O c #550D07",
">X c #640001",
"iO c #B22C08",
"%O c #EE4309",
"]X c #6D0001",
"}O c #9D310D",
"[O c #C12806",
"aO c #701609",
"vo c #A3360F",
"NO c #D35816",
"b. c #DC5817",
"qX c #D94814",
"8. c #91451C",
"<o c #D65F1E",
"eo c #CD5C21",
":+ c #9D4921",
"n. c #DF6E26",
" + c #F1802E",
"gO c #AC5A2A",
",o c #FD752B",
"^O c #FD8A34",
">o c #F18937",
"++ c #795535",
" O c #FD8136",
"7. c #E5853E",
"&  c #060000",
"]o c #090101",
"r  c #060001",
"8  c #0F0000",
"@+ c #210000",
"<O c #270802",
"a  c #180001",
",+ c #180002",
"$. c #2A0000",
"v  c #210001",
"J  c #2A0001",
"8O c #3C0000",
"5X c #360101",
"_  c #330001",
"}  c #721E05",
"T. c #3C0001",
"9O c #480101",
"P. c #4E0000",
"{X c #450001",
"-o c #4E0001",
"i. c #540201",
"nO c #901602",
"wO c #8D0F00",
"Yo c #781D07",
"<X c #570001",
"RO c #C32402",
"q  c #78230A",
"MX c #600001",
"mX c #690001",
"%+ c #A82709",
"DO c #D23E0C",
"`o c #690F08",
"UX c #7B0001",
"-+ c #A53B11",
"{o c #662611",
"{  c #D55A16",
"+. c #9F2A0D",
"eO c #C9591A",
"co c #6F0E0C",
"=O c #B43112",
"FX c #E74814",
"#o c #B72F15",
";+ c #D85E22",
"lX c #D5511E",
"qo c #E4742A",
"$O c #FF832D",
"Oo c #FC6D28",
"yo c #FC8532",
"3o c #FF7A2E",
"X+ c #F68F37",
"BO c #FF8634",
"j. c #FF9B40",
"yO c #FF9B44",
"Ho c #F37F3D",
"xX c #FFB05A",
"HX c #FFBC62",
"h. c #FFBC65",
"HO c #FFCE73",
".  c #020000",
"[o c #050101",
"t  c #020001",
"y  c #0B0000",
")O c #FFDA84",
"w  c #140000",
"l  c #0B0001",
"9  c #230501",
"d. c #1D0000",
";o c #140001",
"<+ c #170102",
"|  c #260000",
"9o c #1D0001",
"^  c #260001",
"X. c #1D0002",
"CX c #2F0000",
" X c #380000",
"1. c #2F0001",
"1+ c #2C0805",
"`O c #350202",
"Io c #380001",
"dO c #380604",
"~  c #440A04",
"|. c #410001",
"Lo c #530000",
"f  c #832206",
"aX c #4A0001",
"pX c #5C0000",
"c. c #7D1102",
"fo c #530001",
"B  c #7D1A05",
"}. c #4A0002",
"MO c #830A00",
"mO c #740801",
"0o c #5F0D05",
"iX c #650001",
"&X c #830A02",
"bX c #770000",
"nX c #770001",
"3+ c #501D12",
"zo c #D15A18",
")o c #B34114",
"cX c #EF641A",
"Mo c #B63C14",
"{O c #E03E11",
"!O c #F5661C",
"EO c #F5601A",
"*O c #E3631F",
"'. c #F87322",
"4+ c #86321B",
"/o c #E94D19",
"rO c #F87627",
"Go c #FB7727",
"to c #D46D2D",
"/O c #F58A34",
"no c #F56C2B",
"o+ c #EF943D",
" o c #E9893E",
"wX c #FE9942",
"mo c #F8A652",
"@o c #FEAB54",
"O+ c #F5AB5C",
"4o c #FEBA62",
"%  c #070000",
"'o c #100301",
"6  c #100000",
"4  c #070001",
"#. c #190000",
"S  c #100001",
"i  c #190001",
"R  c #220000",
"E. c #2B0000",
"b  c #220001",
"R. c #340000",
"m  c #2B0001",
"G  c #2B0302",
"g  c #250403",
"B. c #3D0000",
"`  c #340001",
"*. c #400101",
"3X c #3D0001",
"m. c #640700",
"M. c #460001",
"/. c #5B0100",
"|X c #580F05",
"H. c #850C00",
"=o c #580001",
"t. c #A62C07",
"1X c #4F0002",
"UO c #700E05",
"fO c #4F120A",
"xo c #610303",
";X c #A01803",
"so c #6A0001",
"%o c #730001",
"*X c #E8420A",
"PX c #8B0200",
"pO c #AC2509",
"_X c #940200",
"L. c #A03610",
"f. c #6D2E14",
"xO c #701D0F",
"=+ c #AC4318",
"rX c #DC591C",
"y. c #F77A24",
"@X c #EB7626",
"6O c #D96725",
"}o c #D96D28",
"$X c #E58035",
"ko c #F48535",
"JO c #795935",
"6. c #EE8035",
")X c #EE682D",
"3O c #D39853",
"zX c #FDA955",
"*  c #030000",
"2  c #0C0000",
"A  c #030001",
"4. c #150000",
"RX c #0C0001",
"kO c #1E0000",
"Z  c #150001",
">O c #2D0802",
"XX c #270000",
"c  c #1E0001",
"I  c #390300",
"AX c #300000",
"s  c #2D0201",
"&. c #390000",
".X c #300001",
"'O c #390302",
";. c #600A00",
"VX c #390001",
"[  c #4E0701",
"*+ c #451307",
"Wo c #4B0000",
"N. c #420001",
"<. c #3F0202",
":O c #450A05",
"U. c #4B0001",
"0O c #7E0E01",
"w. c #5D0602",
"F. c #540001",
"-. c #540302",
"N  c #B73C0A",
"U  c #AB3B0C",
"0X c #990E00",
"tX c #6F0000",
"+X c #6C1708",
"J. c #E15610",
"ao c #780000",
"ro c #690403",
"6o c #8A0600",
":X c #7E0201",
"5. c #7E3214",
"SO c #CF4112",
"1o c #A83A16",
"8X c #E14A15",
"bo c #F97F2E",
"-X c #ED7E31",
"~O c #FC8633",
"hO c #966738",
"A. c #FF8436",
"uO c #F69647",
"CO c #FF9C49",
"QO c #FF9649",
"4O c #DE944D",
"eX c #FFAE53",
"KX c #FFAB55",
"(O c #FFB75B",
"io c #FFB159",
"(X c #FFBA61",
"^X c #FFBA68",
"JX c #FFC372",
"=  c #080000",
"X  c #020101",
"ZX c #080001",
"e  c #110000",
"<  c #0E0203",
"W. c #230000",
"ho c #1A0001",
" . c #2C0000",
"/  c #290201",
"dX c #230001",
"s. c #1A0002",
"LO c #2C0001",
"x  c #260403",
"T  c #350301",
"PO c #350001",
"0. c #3E0000",
"Q. c #681403",
"2X c #470001",
"6X c #470904",
"p. c #440202",
"[X c #500001",
"d  c #A13008",
"v. c #AD1C00",
"]O c #741204",
"x. c #530102",
"[. c #590001",
"F  c #5C0D05",
"G. c #500003",
"*o c #620001",
"lO c #3E150D",
"YX c #740000",
"&o c #6B0001",
"YO c #7D0F05",
"_o c #650705",
"cO c #5F110A",
",  c #6E2810",
"IX c #7D0001",
"ZO c #F57320",
"!. c #EC7C26",
"~o c #D16122",
"9X c #E66521",
"6+ c #2C2121",
".O c #CB6526",
"kX c #EC7026",
"Zo c #CB6828",
"^o c #EC6D27",
"Eo c #C26529",
"Vo c #EF8632",
">+ c #8F4B2D",
"5O c #F8923B",
"7X c #E0843A",
"2O c #925E38",
"^. c #DD8645",
"Z. c #EF9E4B",
"+  c #040000",
"V. c #040001",
"5  c #0D0000",
"h  c #160000",
"4X c #0D0001",
"jO c #070404",
"j  c #160001",
".. c #280000",
"oX c #1F0001",
"OX c #280001",
"'  c #310000",
"KO c #250203",
"P  c #310001",
"O. c #2E0503",
"&+ c #430602",
"XO c #430000",
"fX c #400201",
"TX c #3A0001",
"IO c #460101",
",. c #490201",
"BX c #430001",
"Ao c #550000",
"z. c #4C0001",
"%X c #6D0801",
"=. c #6A0D03",
"+O c #670000",
"]. c #911101",
"OO c #5B0203",
"0  c #912C0B",
"yX c #700001",
":o c #942108",
"#O c #D35715",
"9. c #58190E",
":. c #E5691B",
"FO c #C74A19",
"jX c #EB5619",
"lo c #FD7124",
"zO c #8B3F21",
"(o c #F17F31",
"k. c #C46A2F",
"Xo c #EE903D",
"QX c #E8883C",
"GO c #D38744",
/* pixels */
"                            . . X o                             ",
"                    O + @ # $ + % & O * o                       ",
"                % = - ; : > , < 1 2 ; 1 % * 3                   ",
"              4 ; 5 6 7 8 9 0 q w 8 e 8 2 1 r t                 ",
"          + 1 y 5 w u i p a s d f g h j k 8 l % *               ",
"        + = 5 z x i c v b n m M N B V C a Z 6 y = A             ",
"      % ; 2 S D F G H J K L P I U Y T R E W j Q 2 % .           ",
"      = 5 ! ~ ^ / ( ) _ ` ' ] [ { } |  ...b X.j e y r t         ",
"    % y o.O.+.@.#.$.%.&.*.=.-.;.:.>.,.<.1.2.b 3.4.8 ; +         ",
"    1 8 7 5.6.7.8.9.0.q.w.e.r.t.y.u.i.p.a.P 2.b s.7 5 4 t       ",
"  = 5 Q d.f.g.h.j.k.l.z.x.c.v.b.n.m.M.N.B.] 1.| c u 6 1 V.      ",
"  ; 6 j c d.C.Z.A.S.D.F.G.H.J.K.L.P.I.U.Y.T.R.E.W.W w 2 r o     ",
"  y Q i b n Q.!.~.^./.(.)._.`.'.].D.[.{.}.|. X.XXXoXu 8 = .     ",
"O 2 w p H OX+X@X#X$X%X&X*X=X-X;X:X>X,X<X1X2X3X` $.v i e 1 *     ",
"1 4XZ c XX5X6X7X8X9X0XqXwXeXrXtXyXuXiXpXF.aX|.a.sXdXW k 2 V.    ",
"4 8 u E ..fXgXhXjXkXlXzXxXcXvXbXnXyXmXMX<XNXBXVXCXn X.k 2 r     ",
"ZX8 a E $.AXSXDXFXGXHXJXKXLXPXIXUXYXuX>X[.1XY.TXAX| X.Z RXr o   ",
"& 6 a EX$.' WXQX!X~X^X/X(X)X_X`XUX'X]X>X[.[X{X}X.X^ X.Z RXr o   ",
"% 8 u E $.' |X o.oXoooOo+o@o#oYX$o%o&o*o=o-oY.TXAX| p ;o4Xr o   ",
"O 8 u oX..' :o>o,o<o1o2o3o4o5o6oyXtX7o,X8oz.N. XCXH W 7 2 r     ",
"  5 Z 9o| CX0oqowoeorotoyouoiopoaoso>XdofoaXgoa. .b hoQ y +     ",
"  y w W W.m jokolozoxocovobonomoMopXD.8o-o{X}X_ 2.E a e No*     ",
"  y e i E $.BoVoCoZoAoSoDoFoGoHoJoKoLo2XPogoIo) n 9oZ y &       ",
"    o.Z 9oUoYoToRoEoWo[XQo!o~o^o/o(o)o_o`o%.2.H b i 8 'o]o[o    ",
"    ; k Z {o}o|o O.OXOoOOO+O@O#O$O%O&O*O=O-O;O:O6 2 >O,O<O1O    ",
"      o.w 2O3O4O5O6O7O8O9O0OqOwOeOrOtOyOuOiOpOaOsOdOfOgOhOjO    ",
"      % e #.kOlOzOxOcOR.vObOnOmOMONOBOVOCOZOAOSODOFOGOHOJO      ",
"        o.8 7 4.h KOLOCXPOIOUOYOTOROEOWOQO!O~O^O/O(O)O_O        ",
"          5 e u W 9oR XX..LO`O'O]O[O{O}O|O +.+X+o+O+++          ",
"            8 e Z i W c E @+EX#+G $+%+&+*+=+-+;+:+>+            ",
"                6 Q ;o,+i hoW W j <+1+2+4 3+4+5+6+              ",
"                    8 e Q Q 2+2+Q o.% ; =   7+                  "
};
